<svg width="42" height="43" viewBox="0 0 42 43" fill="none" xmlns="http://www.w3.org/2000/svg">
<path d="M21.0093 11.2188C15.0468 11.2188 10.2374 16.0282 10.2374 21.9907C10.2374 27.9532 15.0468 32.7625 21.0093 32.7625C26.9718 32.7625 31.7812 27.9532 31.7812 21.9907C31.7812 16.0282 26.9718 11.2188 21.0093 11.2188ZM21.0093 28.9938C17.1562 28.9938 14.0062 25.8532 14.0062 21.9907C14.0062 18.1282 17.1468 14.9875 21.0093 14.9875C24.8718 14.9875 28.0124 18.1282 28.0124 21.9907C28.0124 25.8532 24.8624 28.9938 21.0093 28.9938ZM34.7343 10.7782C34.7343 12.175 33.6093 13.2907 32.2218 13.2907C30.8249 13.2907 29.7093 12.1657 29.7093 10.7782C29.7093 9.39067 30.8343 8.26567 32.2218 8.26567C33.6093 8.26567 34.7343 9.39067 34.7343 10.7782ZM41.8687 13.3282C41.7093 9.96255 40.9406 6.9813 38.4749 4.52505C36.0187 2.0688 33.0374 1.30005 29.6718 1.1313C26.2031 0.934424 15.8062 0.934424 12.3374 1.1313C8.9812 1.29067 5.99995 2.05942 3.53432 4.51567C1.0687 6.97192 0.309326 9.95317 0.140576 13.3188C-0.0562988 16.7875 -0.0562988 27.1844 0.140576 30.6532C0.299951 34.0188 1.0687 37 3.53432 39.4563C5.99995 41.9125 8.97182 42.6813 12.3374 42.85C15.8062 43.0469 26.2031 43.0469 29.6718 42.85C33.0374 42.6907 36.0187 41.9219 38.4749 39.4563C40.9312 37 41.6999 34.0188 41.8687 30.6532C42.0656 27.1844 42.0656 16.7969 41.8687 13.3282ZM37.3874 34.375C36.6562 36.2125 35.2406 37.6282 33.3937 38.3688C30.6281 39.4657 24.0656 39.2125 21.0093 39.2125C17.9531 39.2125 11.3812 39.4563 8.62495 38.3688C6.78745 37.6375 5.37182 36.2219 4.6312 34.375C3.53432 31.6094 3.78745 25.0469 3.78745 21.9907C3.78745 18.9344 3.5437 12.3625 4.6312 9.6063C5.36245 7.7688 6.77807 6.35317 8.62495 5.61255C11.3906 4.51567 17.9531 4.7688 21.0093 4.7688C24.0656 4.7688 30.6374 4.52505 33.3937 5.61255C35.2312 6.3438 36.6468 7.75942 37.3874 9.6063C38.4843 12.3719 38.2312 18.9344 38.2312 21.9907C38.2312 25.0469 38.4843 31.6188 37.3874 34.375Z" fill="black"/>
</svg>
